<svg xmlns="http://www.w3.org/2000/svg" id="flag-icons-ph" viewBox="0 0 640 480">
  <path fill="#0038a8" d="M0 0h640v240H0z"/>
  <path fill="#ce1126" d="M0 240h640v240H0z"/>
  <path fill="#fff" d="M415.7 240 0 480V0"/>
  <path fill="#fcd116" d="M26.7 42.4 41 55l16.6-9.2-7.4 17.5 14 13-19-1.6-8.1 17.2-4.3-18.5L14 71l16.3-10zm323.8 172.3.4 19 18 6.3-18 6.2-.4 19-11.5-15.1-18.2 5.5 10.8-15.6-10.8-15.6 18.2 5.5zM37.2 388.1l8 17.2 19-1.6-13.9 13 7.4 17.5-16.6-9.1-14.4 12.4 3.6-18.7L14 409l18.9-2.4z"/>
</svg>
