<svg xmlns="http://www.w3.org/2000/svg" viewBox="0 0 64 64" role="img" aria-label="iwinv">
  <g transform="translate(-12.284827,64.000000) scale(0.017321,-0.012500)" fill="#e60012">
    <path d="M2065 5083 c-11 -21 -74 -95 -140 -164 -67 -70 -133 -149 -147 -176
-37 -67 -51 -166 -52 -368 -1 -210 11 -262 82 -337 62 -67 125 -98 197 -98 98
0 158 37 202 125 14 28 44 75 68 105 62 81 74 109 91 223 18 118 12 409 -10
462 -14 32 -54 70 -127 121 -30 20 -55 49 -74 87 -37 70 -61 75 -90 20z"/>
    <path d="M3772 4115 c-104 -29 -135 -56 -181 -155 -16 -36 -48 -90 -71 -120
-63 -85 -75 -135 -75 -340 0 -143 3 -184 18 -226 26 -75 76 -127 162 -170 67
-33 80 -36 139 -32 79 5 97 16 184 119 129 153 133 166 139 450 8 329 -10 401
-108 452 -67 34 -137 42 -207 22z"/>
    <path d="M934 4020 c-70 -29 -125 -203 -191 -605 -22 -139 -27 -199 -30 -450
-7 -447 -3 -1090 7 -1164 14 -107 77 -381 100 -441 12 -30 33 -119 46 -197 27
-163 36 -190 104 -293 27 -41 56 -102 66 -135 24 -85 39 -112 103 -180 31 -33
70 -81 87 -106 18 -26 65 -71 105 -101 41 -30 83 -65 94 -78 32 -35 85 -57
181 -75 180 -33 217 -49 298 -126 l73 -69 60 0 c75 0 151 26 245 83 120 72
136 79 277 103 161 28 177 34 258 91 34 24 92 57 127 73 81 36 153 100 487
433 195 195 269 275 298 325 22 37 60 87 86 112 25 25 64 79 86 120 21 41 63
103 92 136 36 42 64 87 86 141 19 47 49 99 75 129 55 63 69 90 96 192 19 68
31 93 76 148 64 78 77 118 78 244 1 76 -3 101 -17 123 -43 67 -121 56 -197
-26 -160 -173 -208 -237 -235 -307 -20 -52 -43 -88 -89 -138 -45 -49 -69 -86
-90 -141 -22 -57 -40 -84 -83 -125 -30 -28 -68 -75 -85 -105 -31 -53 -109
-142 -217 -245 -29 -28 -82 -80 -118 -114 -38 -38 -86 -73 -117 -87 -29 -13
-80 -47 -112 -75 -73 -65 -89 -73 -211 -109 -54 -16 -138 -44 -188 -62 -90
-33 -90 -33 -285 -34 l-195 0 -100 47 c-55 25 -133 54 -174 63 -94 20 -141 44
-175 90 -15 20 -59 59 -97 86 -58 43 -73 60 -100 116 -17 36 -55 92 -85 124
-62 68 -89 117 -116 213 -11 39 -39 105 -64 146 -56 95 -71 146 -83 295 -6 69
-19 146 -31 180 -11 32 -27 95 -36 139 -8 45 -24 121 -35 169 -18 81 -20 122
-19 470 2 436 10 547 45 658 43 138 29 222 -52 301 -41 40 -76 52 -109 38z"/>
  </g>
</svg>