<svg xmlns="http://www.w3.org/2000/svg" viewBox="0 0 64 64" role="img" aria-label="kt cloud">
  <g transform="translate(-10.396454,81.821839) scale(0.016575,-0.019350)" fill="#e60012">
    <path d="M890 4223 c-115 -19 -204 -86 -241 -182 l-22 -56 4 -775 c5 -963 5
-1041 0 -1595 -4 -410 -3 -454 13 -500 24 -67 57 -109 114 -142 43 -26 55 -28
152 -28 95 0 111 3 162 28 74 36 121 92 141 165 9 31 18 122 22 202 3 80 13
169 21 197 27 98 108 150 193 124 68 -20 115 -65 200 -191 84 -123 287 -368
355 -428 107 -94 322 -141 519 -113 142 20 202 71 202 171 0 69 -26 115 -127
225 -91 98 -237 275 -343 415 -44 57 -122 148 -172 203 -62 66 -104 121 -125
165 -30 61 -33 74 -33 162 0 137 26 186 201 377 74 81 154 163 177 180 98 76
218 95 432 69 175 -21 227 -37 279 -89 80 -81 79 -73 86 -732 7 -640 5 -615
75 -763 60 -127 140 -239 199 -277 120 -79 288 -110 601 -110 213 0 236 2 304
23 132 42 201 138 201 283 0 85 -27 156 -80 211 -53 55 -104 72 -255 87 -117
12 -152 21 -209 55 -53 31 -92 86 -118 168 -18 59 -20 88 -19 413 2 536 19
623 134 689 51 29 64 32 213 51 192 25 278 79 325 205 26 69 23 157 -8 198
-55 74 -126 91 -282 68 -179 -27 -225 -21 -286 38 -27 26 -51 63 -65 101 -21
55 -23 76 -24 275 -1 214 -1 215 -29 272 -51 104 -147 159 -287 166 -174 8
-318 -76 -370 -218 -7 -20 -16 -114 -20 -225 -9 -220 -19 -259 -86 -334 -87
-96 -176 -114 -562 -109 l-267 3 -63 -27 c-35 -14 -113 -55 -175 -90 -113 -63
-165 -108 -321 -277 -97 -104 -187 -133 -276 -88 -35 17 -51 34 -73 77 -41 82
-47 166 -34 529 6 174 11 354 10 401 -1 199 -81 312 -247 347 -62 13 -72 13
-116 6z"/>
  </g>
</svg>