<?xml version="1.0" encoding="UTF-8"?>
<!-- Generator: https://ezgif.com/webp-to-svg -->
<svg version="1.1" xmlns="http://www.w3.org/2000/svg" width="200" height="164">
<path d="M0 0 C0.33 26.07 0.66 52.14 1 79 C5.29 73.72 9.58 68.44 14 63 C19.06 56.81 19.06 56.81 21.1 54.33 C22.43 52.7 23.73 51.04 25.01 49.37 C26.86 47.17 28.38 45.8 30.81 44.31 C31.44 43.92 32.06 43.52 32.71 43.11 C39.56 39.79 45.91 39.73 53.4 39.8 C54.48 39.81 55.56 39.81 56.67 39.81 C60.09 39.82 63.51 39.85 66.94 39.88 C69.27 39.89 71.6 39.89 73.92 39.9 C79.62 39.92 85.31 39.96 91 40 C90.97 38.49 90.97 38.49 90.94 36.96 C90.86 33.22 90.82 29.49 90.78 25.75 C90.76 24.13 90.73 22.52 90.7 20.9 C90.65 18.58 90.63 16.25 90.61 13.93 C90.59 13.21 90.57 12.49 90.55 11.75 C90.55 8.11 90.9 6.16 92.9 3.07 C96.47 -0.45 98.83 -0.12 103.76 -0.1 C105.58 -0.09 105.58 -0.09 107.43 -0.09 C108.98 -0.08 110.53 -0.07 112.12 -0.06 C117.03 -0.04 121.94 -0.02 127 0 C127 13.2 127 26.4 127 40 C147.85 39.6 147.85 39.6 165 31 C165.09 35.56 165.14 40.12 165.19 44.69 C165.21 45.98 165.24 47.27 165.26 48.61 C165.28 50.48 165.28 50.48 165.29 52.39 C165.32 54.11 165.32 54.11 165.34 55.86 C164.88 60.08 163.45 62.79 160.2 65.51 C151.83 70.26 143.26 71.04 133.77 71.02 C132.15 71.01 132.15 71.01 130.49 71.01 C129.67 71.01 128.85 71 128 71 C127.98 78.51 127.96 86.02 127.95 93.53 C127.94 97.02 127.94 100.51 127.92 103.99 C127.91 108 127.91 112.01 127.9 116.02 C127.9 117.27 127.89 118.53 127.89 119.82 C127.89 120.98 127.89 122.14 127.89 123.34 C127.88 124.36 127.88 125.38 127.88 126.44 C127.89 129.12 127.89 129.12 129 132 C132.83 132.88 136.47 133.19 140.39 133.32 C141.6 133.36 142.8 133.4 144.04 133.44 C145.28 133.48 146.53 133.52 147.81 133.56 C149.71 133.63 149.71 133.63 151.65 133.69 C154.76 133.8 157.88 133.9 161 134 C161.09 137.21 161.14 140.42 161.19 143.62 C161.21 144.53 161.24 145.43 161.26 146.36 C161.33 152.48 160.87 157 156.44 161.63 C152.77 163.69 149.32 163.45 145.18 163.43 C144.31 163.44 143.45 163.44 142.57 163.45 C140.75 163.46 138.92 163.45 137.1 163.45 C134.34 163.44 131.58 163.47 128.81 163.5 C127.04 163.5 125.26 163.5 123.49 163.5 C122.67 163.51 121.86 163.52 121.02 163.53 C112.02 163.42 105.22 159.85 98.72 153.79 C92.76 147.59 90.74 141.37 90.77 132.89 C90.77 132.21 90.77 131.53 90.77 130.82 C90.77 128.58 90.79 126.34 90.8 124.1 C90.81 122.54 90.81 120.98 90.81 119.42 C90.82 115.33 90.84 111.23 90.86 107.14 C90.88 102.96 90.89 98.77 90.9 94.59 C90.92 86.39 90.96 78.2 91 70 C90.01 70.5 90.01 70.5 89 71 C87.09 70.94 85.17 70.87 83.26 70.75 C79.92 70.55 76.57 70.43 73.22 70.31 C71.46 70.23 69.71 70.13 67.96 70 C58.12 69.05 58.12 69.05 49.16 72.31 C45.89 75.55 43.47 79.24 41.14 83.19 C39.29 86.14 37.06 88.71 34.81 91.38 C34.08 92.27 33.34 93.16 32.58 94.09 C32.06 94.72 31.54 95.35 31 96 C32.44 100.44 34.89 103.5 37.94 106.94 C41.91 111.51 45.74 116.15 49.44 120.94 C53.16 125.74 57.01 130.41 61 135 C65.1 139.72 69.08 144.52 72.94 149.44 C73.37 149.99 73.81 150.55 74.26 151.12 C76.46 153.94 78.58 156.79 80.65 159.7 C81.1 160.32 81.54 160.94 81.99 161.58 C82.33 162.05 82.66 162.52 83 163 C77.41 163.1 71.83 163.17 66.24 163.22 C64.34 163.24 62.44 163.27 60.54 163.3 C57.81 163.35 55.07 163.37 52.34 163.39 C51.49 163.41 50.65 163.43 49.78 163.45 C44.34 163.46 41.32 162.6 37 159 C35.17 157.07 33.48 155.18 31.81 153.12 C31.34 152.56 30.87 151.99 30.39 151.41 C26.56 146.76 22.84 142.01 19.14 137.25 C15.42 132.48 11.56 127.85 7.62 123.26 C5.31 120.57 3.11 117.85 1 115 C0.99 116.25 0.98 117.49 0.97 118.78 C0.93 123.41 0.87 128.04 0.79 132.67 C0.76 134.67 0.74 136.68 0.73 138.68 C0.71 141.56 0.66 144.44 0.61 147.32 C0.61 148.66 0.61 148.66 0.61 150.03 C0.51 154.2 0.35 156.44 -1.91 160.04 C-5.46 163.37 -7.75 163.12 -12.54 163.1 C-13.84 163.09 -15.14 163.09 -16.48 163.09 C-17.86 163.08 -19.24 163.07 -20.62 163.06 C-22.01 163.06 -23.4 163.05 -24.79 163.05 C-28.19 163.04 -31.6 163.02 -35 163 C-35.09 142.62 -35.16 122.23 -35.21 101.85 C-35.23 92.38 -35.26 82.92 -35.3 73.45 C-35.34 65.21 -35.37 56.96 -35.38 48.71 C-35.38 44.34 -35.39 39.97 -35.42 35.6 C-35.45 31.49 -35.46 27.38 -35.45 23.27 C-35.45 21.76 -35.46 20.25 -35.48 18.74 C-35.5 16.68 -35.49 14.62 -35.48 12.56 C-35.48 11.41 -35.49 10.26 -35.49 9.07 C-34.89 5.34 -33.61 3.68 -31 1 C-21.75 -3.62 -10.34 0 0 0 Z " fill="#EC1B23" transform="translate(35,0)"/>
<path d="M0 0 C0.33 26.07 0.66 52.14 1 79 C3.97 77.02 6.94 75.04 10 73 C17.85 68.82 26.34 69.67 35 69.81 C36.55 69.83 38.11 69.84 39.66 69.85 C43.44 69.89 47.22 69.94 51 70 C48.84 73.67 46.54 76.91 43.81 80.19 C39.48 85.41 35.23 90.69 31 96 C32.44 100.44 34.89 103.5 37.94 106.94 C41.91 111.51 45.74 116.15 49.44 120.94 C53.16 125.74 57.01 130.41 61 135 C65.1 139.72 69.08 144.52 72.94 149.44 C73.37 149.99 73.81 150.55 74.26 151.12 C76.46 153.94 78.58 156.79 80.65 159.7 C81.1 160.32 81.54 160.94 81.99 161.58 C82.33 162.05 82.66 162.52 83 163 C77.41 163.1 71.83 163.17 66.24 163.22 C64.34 163.24 62.44 163.27 60.54 163.3 C57.81 163.35 55.07 163.37 52.34 163.39 C51.49 163.41 50.65 163.43 49.78 163.45 C44.34 163.46 41.32 162.6 37 159 C35.17 157.07 33.48 155.18 31.81 153.12 C31.34 152.56 30.87 151.99 30.39 151.41 C26.56 146.76 22.84 142.01 19.14 137.25 C15.42 132.48 11.56 127.85 7.62 123.26 C5.31 120.57 3.11 117.85 1 115 C0.99 116.25 0.98 117.49 0.97 118.78 C0.93 123.41 0.87 128.04 0.79 132.67 C0.76 134.67 0.74 136.68 0.73 138.68 C0.71 141.56 0.66 144.44 0.61 147.32 C0.61 148.66 0.61 148.66 0.61 150.03 C0.51 154.2 0.35 156.44 -1.91 160.04 C-5.46 163.37 -7.75 163.12 -12.54 163.1 C-13.84 163.09 -15.14 163.09 -16.48 163.09 C-17.86 163.08 -19.24 163.07 -20.62 163.06 C-22.01 163.06 -23.4 163.05 -24.79 163.05 C-28.19 163.04 -31.6 163.02 -35 163 C-35.09 142.62 -35.16 122.23 -35.21 101.85 C-35.23 92.38 -35.26 82.92 -35.3 73.45 C-35.34 65.21 -35.37 56.96 -35.38 48.71 C-35.38 44.34 -35.39 39.97 -35.42 35.6 C-35.45 31.49 -35.46 27.38 -35.45 23.27 C-35.45 21.76 -35.46 20.25 -35.48 18.74 C-35.5 16.68 -35.49 14.62 -35.48 12.56 C-35.48 11.41 -35.49 10.26 -35.49 9.07 C-34.89 5.34 -33.61 3.68 -31 1 C-21.75 -3.62 -10.34 0 0 0 Z " fill="#221D1E" transform="translate(35,0)"/>
<path d="M0 0 C4.97 -0.02 9.93 -0.04 14.9 -0.05 C16.59 -0.06 18.28 -0.07 19.97 -0.08 C22.4 -0.09 24.82 -0.09 27.25 -0.1 C28.39 -0.11 28.39 -0.11 29.55 -0.11 C31.37 -0.11 33.18 -0.06 35 0 C36.72 1.72 36.16 4.04 36.19 6.39 C36.21 7.54 36.22 8.69 36.24 9.88 C36.25 11.13 36.27 12.39 36.28 13.68 C36.31 15.63 36.34 17.59 36.37 19.54 C36.41 22.99 36.46 26.43 36.5 29.88 C36.55 33.97 36.6 38.07 36.66 42.17 C36.7 44.73 36.73 47.29 36.76 49.84 C36.78 51 36.79 52.16 36.81 53.35 C36.82 54.37 36.84 55.39 36.85 56.44 C36.9 59.12 36.9 59.12 38 62 C41.83 62.88 45.47 63.19 49.39 63.32 C51.2 63.38 51.2 63.38 53.04 63.44 C54.28 63.48 55.53 63.52 56.81 63.56 C58.71 63.63 58.71 63.63 60.65 63.69 C63.76 63.8 66.88 63.9 70 64 C70.09 67.21 70.14 70.42 70.19 73.62 C70.21 74.53 70.24 75.43 70.26 76.36 C70.33 82.48 69.87 87 65.44 91.63 C61.77 93.69 58.32 93.45 54.18 93.43 C53.31 93.44 52.45 93.44 51.57 93.45 C49.75 93.46 47.92 93.45 46.1 93.45 C43.34 93.44 40.58 93.47 37.81 93.5 C36.04 93.5 34.26 93.5 32.49 93.5 C31.67 93.51 30.86 93.52 30.02 93.53 C21.02 93.42 14.22 89.85 7.72 83.79 C1.76 77.59 -0.26 71.37 -0.23 62.89 C-0.23 61.87 -0.23 61.87 -0.23 60.82 C-0.23 58.58 -0.21 56.34 -0.2 54.1 C-0.19 52.54 -0.19 50.98 -0.19 49.42 C-0.18 45.33 -0.16 41.23 -0.14 37.14 C-0.12 32.96 -0.11 28.77 -0.1 24.59 C-0.08 16.39 -0.04 8.2 0 0 Z " fill="#221E1F" transform="translate(126,70)"/>
<path d="M0 0 C0.99 0 0.99 0 2.01 0 C4.13 0.01 6.25 0.02 8.37 0.04 C9.8 0.04 11.24 0.04 12.68 0.05 C16.2 0.06 19.72 0.08 23.24 0.1 C23.27 5.78 23.29 11.45 23.3 17.13 C23.3 19.07 23.31 21 23.32 22.93 C23.33 25.7 23.34 28.48 23.34 31.25 C23.35 32.12 23.35 32.99 23.36 33.89 C23.36 35.96 23.3 38.03 23.24 40.1 C22.24 41.1 22.24 41.1 18.92 41.21 C17.44 41.21 15.96 41.21 14.49 41.2 C13.71 41.19 12.94 41.19 12.14 41.19 C9.65 41.19 7.17 41.17 4.68 41.16 C3 41.16 1.32 41.15 -0.37 41.15 C-4.5 41.14 -8.63 41.12 -12.76 41.1 C-12.86 36.2 -12.93 31.31 -12.98 26.42 C-13 24.76 -13.02 23.09 -13.06 21.43 C-13.11 19.03 -13.13 16.64 -13.15 14.24 C-13.17 13.5 -13.19 12.76 -13.21 12 C-13.21 8.31 -12.88 6.28 -10.86 3.15 C-7.28 -0.35 -4.92 -0.02 0 0 Z " fill="#231E1F" transform="translate(138.7578125,-0.09765625)"/>
</svg>
